/* XPM */
static char *_ddf2f224a15433db099be7332e992c0YjN5PzBL1QkFjiAB[] = {
/* columns rows colors chars-per-pixel */
"32 32 8 1 ",
"  c #83A448",
". c #D2CD87",
"X c #99876E",
"o c #E8DE9C",
"O c #B0A67B",
"+ c #846851",
"@ c #867673",
"# c white",
/* pixels */
"                                ",
"                                ",
"                                ",
"                                ",
"                                ",
"                                ",
"                                ",
"                                ",
"                                ",
"                                ",
"                                ",
"                                ",
"                                ",
"                                ",
"                                ",
"       .......................  ",
"      .........................X",
"      .........................X",
"      .........................X",
"      .........................X",
"      .........................X",
"      .........................X",
"      .......................oOX",
"      ................oo....oOOX",
"      ................XXXXXXXOO+",
"      ................XXXXXXXXO+",
"      ................XXXXXXXXX+",
"      ................XXXXXXXXX+",
"      ................XXXXXXXXX+",
"      ................XXXXXXXXX+",
"      ................XXXXXXXX@+",
"       ..............O++@@@@@+++"
};
