/* XPM */
static char *_330f43028824d98b5bba29bf4852319ISAfWUhtzoxzKHEO[] = {
/* columns rows colors chars-per-pixel */
"32 32 7 1 ",
"  c #83A448",
". c #D2CD87",
"X c #B0A67B",
"o c #99876E",
"O c #867673",
"+ c #846851",
"@ c white",
/* pixels */
"                                ",
"                                ",
"                                ",
"                                ",
"                                ",
"                                ",
"                                ",
"                                ",
"                                ",
"                                ",
"                                ",
"                                ",
"                                ",
"                                ",
"                                ",
"  .......................       ",
"..........................      ",
"..........................      ",
"..........................      ",
"..........................      ",
"..........................      ",
"..........................      ",
"XX........................      ",
"XX........................      ",
"XXoooooooo................      ",
"Xooooooooo................      ",
"Xooooooooo................      ",
"oooooooooo................      ",
"oooooooooo................      ",
"Oooooooooo................      ",
"OOoooooooo...............X      ",
"+++++OOO++X.............XX      "
};
