/* XPM */
static char *_34af180ce5b43d98de652cc6784559cqoNb9NNk6nOUrZTc[] = {
/* columns rows colors chars-per-pixel */
"32 32 9 1 ",
"  c None",
". c #7D7669",
"X c #846851",
"o c #867673",
"O c #83A448",
"+ c #99876E",
"@ c #B0A67B",
"# c #D2CD87",
"$ c #E8DE9C",
/* pixels */
"          ................OOOOOO",
"          @@#############@OOOOOO",
"          @###############OOOOOO",
"          ################OOOOOO",
"          ################OOOOOO",
"          ################OOOOOO",
"          ################OOOOOO",
"          ################OOOOOO",
"          ################OOOOOO",
"          ################OOOOOO",
"          ################OOOOOO",
"          ################OOOOOO",
"          ################OOOOOO",
"          ################OOOOOO",
"          ################OOOOOO",
"          ####################OO",
"          #####################+",
"          #####################+",
"          #####################+",
"          #####################+",
"          #####################+",
"          #####################+",
"          @$#################$@+",
"          @@#$$############$$@@+",
"          @++++++++++++++++++@@X",
"          @+++++++++++++++++++@X",
"          +++++++++++++++++++++X",
"          +++++++++++++++++++++X",
"          +++++++++++++++++++++X",
"          ++++++++++++++++++++oX",
"          +++++++++++++++++ooooX",
"           ooooooooooooXXXXXXXXX"
};
