/* XPM */
static char *_56a5cfab0e54a9daf61bfe5cae66ef50y7K35AuoZilPfAQ[] = {
/* columns rows colors chars-per-pixel */
"32 32 9 1 ",
"  c None",
". c #7D7669",
"X c #846851",
"o c #867673",
"O c #83A448",
"+ c #99876E",
"@ c #B0A67B",
"# c #D2CD87",
"$ c #E8DE9C",
/* pixels */
"OOOOOO................          ",
"OOOOOOO#############@@          ",
"OOOOOO###############@          ",
"OOOOOO################          ",
"OOOOOO################          ",
"OOOOOO################          ",
"OOOOOO################          ",
"OOOOOO################          ",
"OOOOOO################          ",
"OOOOOO################          ",
"OOOOOO################          ",
"OOOOOO################          ",
"OOOOOO################          ",
"OOOOOO################          ",
"OOOOOO################          ",
"O#####################          ",
"######################          ",
"######################          ",
"######################          ",
"######################          ",
"######################          ",
"######################          ",
"#####################@          ",
"@@#$$$$$$$###$###$$@@@          ",
"@+++++++++++++++++++@@          ",
"++++++++++++++++++++@@          ",
"+++++++++++++++++++++@          ",
"++++++++++++++++++++++          ",
"++++++++++++++++++++++          ",
"++++++++++++++++++++++          ",
"o+++++++++++++++++++++          ",
"XXXXXXXXXoooooooooooo           "
};
