/* XPM */
static char *acd4407feaf14e059edf9bed10b6e0d762t0CAzZRaM02rji[] = {
/* columns rows colors chars-per-pixel */
"32 32 6 1 ",
"  c None",
". c #7D7669",
"X c #83A448",
"o c #B0A67B",
"O c #D2CD87",
"+ c #E8DE9C",
/* pixels */
"XXXXXX................          ",
"XXXXXXXOOOOOOOOOOOOOOo          ",
"XXXXXXOOOOOOOOOOOOOOOo          ",
"XXXXXXOOOOOOOOOOOOOOOO          ",
"XXXXXXOOOOOOOOOOOOOOOO          ",
"XXXXXXOOOOOOOOOOOOOOOO          ",
"XXXXXXOOOOOOOOOOOOOOOO          ",
"XXXXXXOOOOOOOOOOOOOOOO          ",
"XXXXXXOOOOOOOOOOOOOOOO          ",
"XXXXXXOOOOOOOOOOOOOOOO          ",
"XXXXXXOOOOOOOOOOOOOOOO          ",
"XXXXXXOOOOOOOOOOOOOOOO          ",
"XXXXXXOOOOOOOOOOOOOOO+          ",
"XXXXXXOOOOOOOOOOOOOOO+          ",
"XXXXXXOOOOOOOOOOOOOOOO          ",
"XXXXXXOOOOOOOOOOOOOOOO          ",
"XXXXXXOOOOOOOOOOOOOOOO          ",
"XXXXXXOOOOOOOOOOOOOOOO          ",
"XXXXXXOOOOOOOOOOOOOOOO          ",
"XXXXXXOOOOOOOOOOOOOOOO          ",
"XXXXXXOOOOOOOOOOOOOOOO          ",
"XXXXXXOOOOOOOOOOOOOOOO          ",
"XXXXXXOOOOOOOOOOOOOOOO          ",
"XXXXXXOOOOOOOOOOOOOOOO          ",
"XXXXXXOOOOOOOOOOOOOOOO          ",
"XXXXXXOOOOOOOOOOOOOOOO          ",
"XXXXXXOOOOOOOOOOOOOOOO          ",
"XXXXXXOOOOOOOOOOOOOOOO          ",
"XXXXXXOOOOOOOOOOOOOOOO          ",
"XXXXXXOOOOOOOOOOOOOOOO          ",
"XXXXXXoOOOOOOOOOOOOOOO          ",
"XXXXXXooOOOOOOOOOOOOOo          "
};
