/* XPM */
static char *_67bd2b90dc74a7fd01ab00a804b3896rQpUyfwqSt2wTNRv[] = {
/* columns rows colors chars-per-pixel */
"32 32 6 1 ",
"  c None",
". c #7D7669",
"X c #83A448",
"o c #B0A67B",
"O c #D2CD87",
"+ c #E8DE9C",
/* pixels */
"          ................XXXXXX",
"          oOOOOOOOOOOOOOOoXXXXXX",
"          OOOOOOOOOOOOOOOoXXXXXX",
"          OOOOOOOOOOOOOOOOXXXXXX",
"          OOOOOOOOOOOOOOOOXXXXXX",
"          +OOOOOOOOOOOOOOOXXXXXX",
"          +OOOOOOOOOOOOOOOXXXXXX",
"          +OOOOOOOOOOOOOOOXXXXXX",
"          +OOOOOOOOOOOOOOOXXXXXX",
"          OOOOOOOOOOOOOOOOXXXXXX",
"          OOOOOOOOOOOOOOOOXXXXXX",
"          OOOOOOOOOOOOOOOOXXXXXX",
"          OOOOOOOOOOOOOOOOXXXXXX",
"          OOOOOOOOOOOOOOOOXXXXXX",
"          OOOOOOOOOOOOOOOOXXXXXX",
"          OOOOOOOOOOOOOOOOXXXXXX",
"          OOOOOOOOOOOOOOOOXXXXXX",
"          OOOOOOOOOOOOOOOOXXXXXX",
"          OOOOOOOOOOOOOOOOXXXXXX",
"          OOOOOOOOOOOOOOOOXXXXXX",
"          OOOOOOOOOOOOOOOOXXXXXX",
"          OOOOOOOOOOOOOOOOXXXXXX",
"          OOOOOOOOOOOOOOOOXXXXXX",
"          OOOOOOOOOOOOOOOOXXXXXX",
"          OOOOOOOOOOOOOOOOXXXXXX",
"          OOOOOOOOOOOOOOOOXXXXXX",
"          OOOOOOOOOOOOOOOOXXXXXX",
"          OOOOOOOOOOOOOOOOXXXXXX",
"          OOOOOOOOOOOOOOOOXXXXXX",
"          OOOOOOOOOOOOOOOOXXXXXX",
"          oOOOOOOOOOOOOOOoXXXXXX",
"          ooOOOOOOOOOOOOooXXXXXX"
};
