/* XPM */
static char *_d70a40fdc0443988335cf615e819da3Xzo6zKPCUv4gi5Q3[] = {
/* columns rows colors chars-per-pixel */
"32 32 9 1 ",
"  c #83A448",
". c #D2CD87",
"X c #7D7669",
"o c #B0A67B",
"O c #E8DE9C",
"+ c #99876E",
"@ c #846851",
"# c #867673",
"$ c white",
/* pixels */
"                                ",
"                                ",
"                                ",
"                                ",
"                                ",
"                                ",
"                                ",
"                                ",
"                                ",
"                                ",
"                                ",
"                                ",
"                                ",
"                                ",
"                                ",
" .............................  ",
"............................... ",
"............................... ",
"............................... ",
"...............................X",
"...............................X",
"...............................X",
"ooo............................X",
"oooOO................O.OOOO..ooX",
"ooo+++++++++++++++++++++++oooooX",
"oo++++++++++++++++++++++++++oooX",
"+o++++++++++++++++++++++++++++oX",
"+++++++++++++++++++++++++++++++@",
"++++++++++++++++++++++++++++++#@",
"+++++++++++++++++++++++++++++##@",
"++++++++++++++++++++++++++++###@",
"@@######@@@@@@@@############@@@@"
};
